{"title":"Adele - Live At The Royal Albert Hall (xvid/avi)","uid":7054174,"size":1024535628,"categoryP":"video","categoryS":"music_videos","magnet":"?xt=urn:btih:041c6df2c70ebfb9249291f197701e9d0bf54418&amp;dn=Adele+-+Live+At+The+Royal+Albert+Hall+%28xvid%2Favi%29&amp;tr=udp%3A%2F%2Ftracker.openbittorrent.com%3A80&amp;tr=udp%3A%2F%2Fopen.demonii.com%3A1337&amp;tr=udp%3A%2F%2Ftracker.coppersurfer.tk%3A6969&amp;tr=udp%3A%2F%2Fexodus.desync.com%3A6969","seeders":1,"leechers":0,"uploader":"MusicVideos-HQ","files":5,"time":1330061093,"description":"General\n\nFormat                           : AVI\nFormat/Info                      : Audio Video Interleave\nFile size                        : 977 MiB\nDuration                         : 1h 39mn\nOverall bit rate                 : 1 374 Kbps\n\nVideo\nID                               : 0\nFormat                           : MPEG-4 Visual\nFormat profile                   : Advanced Simple@L5\nFormat settings, BVOP            : 2\nFormat settings, QPel            : No\nFormat settings, GMC             : No warppoints\nFormat settings, Matrix          : Default (H.263)\nMuxing mode                      : Packed bitstream\nCodec ID                         : XVID\nCodec ID/Hint                    : XviD\nDuration                         : 1h 39mn\nBit rate                         : 1 234 Kbps\nWidth                            : 640 pixels\nHeight                           : 480 pixels\nDisplay aspect ratio             : 4:3\nFrame rate                       : 29.970 fps\nColor space                      : YUV\nChroma subsampling               : 4:2:0\nBit depth                        : 8 bits\nScan type                        : Progressive\nCompression mode                 : Lossy\nBits/(Pixel*Frame)               : 0.134\nStream size                      : 878 MiB (90%)\nWriting library                  : XviD 1.0.1 (UTC 2004-06-05)\n\nAudio\nID                               : 1\nFormat                           : MPEG Audio\nFormat version                   : Version 1\nFormat profile                   : Layer 3\nCodec ID                         : 55\nCodec ID/Hint                    : MP3\nDuration                         : 1h 39mn\nBit rate mode                    : Constant\nBit rate                         : 128 Kbps\nChannel(s)                       : 2 channels\nSampling rate                    : 44.1 KHz\nCompression mode                 : Lossy\nStream size                      : 91.0 MiB (9%)\nAlignment                        : Split accross interleaves\nInterleave, duration             : 33 ms (1.00 video frame)\n\n","torrent":{"xt":"urn:btih:041c6df2c70ebfb9249291f197701e9d0bf54418","amp;dn":"Adele+-+Live+At+The+Royal+Albert+Hall+%28xvid%2Favi%29","amp;tr":["udp%3A%2F%2Ftracker.openbittorrent.com%3A80","udp%3A%2F%2Fopen.demonii.com%3A1337","udp%3A%2F%2Ftracker.coppersurfer.tk%3A6969","udp%3A%2F%2Fexodus.desync.com%3A6969"],"infoHash":"041c6df2c70ebfb9249291f197701e9d0bf54418","infoHashBuffer":{"type":"Buffer","data":[4,28,109,242,199,14,191,185,36,146,145,241,151,112,30,157,11,245,68,24]},"announce":[],"urlList":[]}}